<?xml version="1.0" standalone="no"?>
<!DOCTYPE svg PUBLIC "-//W3C//DTD SVG 20010904//EN"
 "http://www.w3.org/TR/2001/REC-SVG-20010904/DTD/svg10.dtd">
<svg version="1.0" xmlns="http://www.w3.org/2000/svg"
 width="512.000000pt" height="512.000000pt" viewBox="0 0 512.000000 512.000000"
 preserveAspectRatio="xMidYMid meet">
<metadata>
Created by potrace 1.11, written by Peter Selinger 2001-2013
</metadata>
<g transform="translate(0.000000,512.000000) scale(0.100000,-0.100000)"
fill="#000000" stroke="none">
<path d="M2835 5063 c-97 -9 -299 -46 -402 -73 -661 -176 -1210 -602 -1557
-1207 -159 -278 -274 -650 -307 -993 -14 -152 -6 -442 16 -590 82 -541 325
-1021 710 -1405 292 -292 600 -484 981 -611 475 -159 1046 -175 1457 -40 189
62 314 135 445 261 174 166 276 377 324 670 19 118 16 479 -6 635 -84 607
-326 1305 -746 2155 -193 390 -399 764 -602 1093 l-69 112 -102 -2 c-56 -1
-120 -3 -142 -5z m121 -1950 c0 -302 8 -420 45 -673 87 -583 290 -1116 596
-1564 56 -81 71 -111 62 -117 -8 -4 -56 -16 -109 -26 -131 -25 -409 -24 -535
1 -676 134 -1135 668 -1135 1321 0 464 234 888 641 1160 125 85 356 191 419
194 14 1 16 -36 16 -296z"/>
</g>
</svg>
